<svg width="30" height="30" viewBox="0 0 30 30" fill="lightgrey" xmlns="http://www.w3.org/2000/svg">
<path fill-rule="evenodd" clip-rule="evenodd" d="M21.447 5.50904C20.0462 5.88991 19.5703 6.03439 19.4999 6.10015C19.3423 6.24733 19.2863 6.39564 19.307 6.61116C19.3231 6.77885 19.349 6.82887 19.4856 6.95636C19.6409 7.10119 19.741 7.13151 19.9805 7.10611C20.0234 7.10158 20.5455 6.96769 21.1405 6.80859C21.7356 6.64949 22.2427 6.51934 22.2673 6.51934C22.3213 6.51934 22.1901 6.74982 21.8227 7.30077C20.6225 9.10027 18.9637 10.8119 17.0117 12.2648C14.1609 14.3869 10.8911 15.8006 7.80777 16.2443C7.04754 16.3537 6.88422 16.3686 6.09961 16.3999C5.4775 16.4248 5.37754 16.4379 5.28551 16.5067C4.91988 16.7797 4.91418 17.2475 5.27344 17.4922C5.40902 17.5845 5.41656 17.5852 6.17188 17.5635C9.78176 17.46 13.7999 15.9988 17.2656 13.5293C19.6519 11.8289 21.6048 9.81894 23.0299 7.59685C23.1795 7.36367 23.2863 7.2313 23.298 7.26474C23.3087 7.2953 23.4339 7.75845 23.5763 8.29396C23.8793 9.43374 23.8803 9.43683 24.0143 9.57729C24.3215 9.89939 24.9001 9.71615 24.9837 9.27031C25.0221 9.06542 24.0275 5.33983 23.8971 5.20015C23.7681 5.06199 23.6178 4.99494 23.4492 5.0003C23.3676 5.00288 22.4666 5.23183 21.447 5.50904ZM20.9018 11.7438C20.807 11.7773 20.6559 11.8782 20.5661 11.9681C20.2512 12.283 20.2734 11.8118 20.2734 18.1695V23.8279H19.6875H19.1016V20.1231C19.1016 15.954 19.1173 16.1837 18.8096 15.8759C18.5437 15.6099 18.4129 15.5839 17.3438 15.5839C16.2746 15.5839 16.1438 15.6099 15.8779 15.8759C15.5702 16.1837 15.5859 15.954 15.5859 20.1231V23.8279H15H14.4141V21.1975C14.4141 18.2298 14.4229 18.3256 14.1221 18.0248C13.8562 17.7588 13.7254 17.7328 12.6562 17.7328C11.5871 17.7328 11.4563 17.7588 11.1904 18.0248C10.8896 18.3256 10.8984 18.2298 10.8984 21.1975V23.8279H10.3125H9.72656V21.9008C9.72656 19.7179 9.7273 19.7241 9.43461 19.4313C9.16875 19.1654 9.03789 19.1393 7.96875 19.1393C6.89961 19.1393 6.76875 19.1654 6.50289 19.4313C6.2102 19.7241 6.21094 19.7179 6.21094 21.9008V23.8279H5.83828C5.54191 23.8279 5.4341 23.844 5.31148 23.9065C5.13816 23.995 5 24.2201 5 24.4139C5 24.6078 5.13816 24.8329 5.31148 24.9214C5.46473 24.9995 5.52148 25 15 25C24.4785 25 24.5353 24.9995 24.6885 24.9214C24.8618 24.8329 25 24.6078 25 24.4139C25 24.2201 24.8618 23.995 24.6885 23.9065C24.5659 23.844 24.4581 23.8279 24.1617 23.8279H23.7891V18.1695C23.7891 11.8131 23.8112 12.2829 23.4971 11.9688C23.2294 11.701 23.1025 11.6763 22.0145 11.6798C21.2686 11.6823 21.0386 11.6955 20.9018 11.7438Z" />
</svg>